<?xml version="1.0" standalone="no"?>
 <!DOCTYPE svg PUBLIC "-//W3C//DTD SVG 1.1//EN" 
 "http://www.w3.org/Graphics/SVG/1.1/DTD/svg11.dtd"> 
<svg
  xmlns:svg="http://www.w3.org/2000/svg"
  xmlns="http://www.w3.org/2000/svg"
  xmlns:xlink="http://www.w3.org/1999/xlink"
  version="1.1"
  width="297.0022mm" height="210.0072mm" viewBox="0.0000 0.0000 297.0022 210.0072">
<title>SVG Image created as Tastatur-F_Fab.svg date 2024/09/21 02:02:51 </title>
  <desc>Image generated by PCBNEW </desc>
<g style="fill:#000000; fill-opacity:1.0000;stroke:#000000; stroke-opacity:1.0000;
stroke-linecap:round; stroke-linejoin:round;"
 transform="translate(0 0) scale(1 1)">
</g>
<g style="fill:none; 
stroke:#000000; stroke-width:0.1000; stroke-opacity:1; 
stroke-linecap:round; stroke-linejoin:round;">
<path d="M41.4532 68.2645
L41.4532 60.9645
" />
<path d="M50.3932 60.9645
L41.4532 60.9645
" />
<path d="M50.3932 68.2645
L41.4532 68.2645
" />
<path d="M50.3932 68.2645
L50.3932 60.9645
" />
</g>
<g style="fill:none; 
stroke:#000000; stroke-width:0.1500; stroke-opacity:1; 
stroke-linecap:round; stroke-linejoin:round;">
<path d="M65.1511 56.6204
L80.1145 55.5740
" />
<path d="M66.1974 71.5838
L65.1511 56.6204
" />
<path d="M80.1145 55.5740
L81.1609 70.5375
" />
<path d="M81.1609 70.5375
L66.1974 71.5838
" />
<path style="fill:none; 
stroke:#000000; stroke-width:0.1000; stroke-opacity:1; 
stroke-linecap:round; stroke-linejoin:round;fill:none"
d="M 83.5594,72.2243
64.3064,73.5706
62.9897,54.7415
82.2427,53.3952
Z" /> 
</g>
<g style="fill:none; 
stroke:#000000; stroke-width:0.1500; stroke-opacity:1; 
stroke-linecap:round; stroke-linejoin:round;">
<path d="M148.8667 111.2097
L149.3902 96.2188
" />
<path d="M149.3902 96.2188
L164.3811 96.7423
" />
<path d="M163.8576 111.7332
L148.8667 111.2097
" />
<path d="M164.3811 96.7423
L163.8576 111.7332
" />
<path style="fill:none; 
stroke:#000000; stroke-width:0.1000; stroke-opacity:1; 
stroke-linecap:round; stroke-linejoin:round;fill:none"
d="M 166.7253,94.7980
166.0666,113.6615
146.7784,112.9879
147.4371,94.1244
Z" /> 
</g>
<g style="fill:none; 
stroke:#000000; stroke-width:0.1500; stroke-opacity:1; 
stroke-linecap:round; stroke-linejoin:round;">
<path d="M90.0475 71.7238
L105.0475 71.7238
" />
<path d="M90.0475 86.7238
L90.0475 71.7238
" />
<path d="M105.0475 71.7238
L105.0475 86.7238
" />
<path d="M105.0475 86.7238
L90.0475 86.7238
" />
<path style="fill:none; 
stroke:#000000; stroke-width:0.1000; stroke-opacity:1; 
stroke-linecap:round; stroke-linejoin:round;fill:none"
d="M 88.0225,69.6988
107.3225,69.6988
107.3225,88.5738
88.0225,88.5738
Z" /> 
</g>
<g style="fill:none; 
stroke:#000000; stroke-width:0.1500; stroke-opacity:1; 
stroke-linecap:round; stroke-linejoin:round;">
<path d="M109.9972 95.7096
L124.9972 95.7096
" />
<path d="M109.9972 110.7096
L109.9972 95.7096
" />
<path d="M124.9972 95.7096
L124.9972 110.7096
" />
<path d="M124.9972 110.7096
L109.9972 110.7096
" />
<path style="fill:none; 
stroke:#000000; stroke-width:0.1000; stroke-opacity:1; 
stroke-linecap:round; stroke-linejoin:round;fill:none"
d="M 107.9722,93.6846
127.2722,93.6846
127.2722,112.5596
107.9722,112.5596
Z" /> 
</g>
<g style="fill:none; 
stroke:#000000; stroke-width:0.1500; stroke-opacity:1; 
stroke-linecap:round; stroke-linejoin:round;">
<path d="M84.9629 131.8683
L99.9264 130.8219
" />
<path d="M86.0093 146.8318
L84.9629 131.8683
" />
<path d="M99.9264 130.8219
L100.9727 145.7854
" />
<path d="M100.9727 145.7854
L86.0093 146.8318
" />
<path style="fill:none; 
stroke:#000000; stroke-width:0.1000; stroke-opacity:1; 
stroke-linecap:round; stroke-linejoin:round;fill:none"
d="M 103.3712,147.4722
84.1182,148.8185
82.8016,129.9895
102.0546,128.6432
Z" /> 
</g>
<g style="fill:none; 
stroke:#000000; stroke-width:0.1500; stroke-opacity:1; 
stroke-linecap:round; stroke-linejoin:round;">
<path d="M129.5750 110.7996
L129.8368 95.8019
" />
<path d="M129.8368 95.8019
L144.8345 96.0637
" />
<path d="M144.5727 111.0614
L129.5750 110.7996
" />
<path d="M144.8345 96.0637
L144.5727 111.0614
" />
<path style="fill:none; 
stroke:#000000; stroke-width:0.1000; stroke-opacity:1; 
stroke-linecap:round; stroke-linejoin:round;fill:none"
d="M 147.1445,94.0787
146.8151,112.9508
127.5180,112.6140
127.8474,93.7419
Z" /> 
</g>
<g style="fill:none; 
stroke:#000000; stroke-width:0.1500; stroke-opacity:1; 
stroke-linecap:round; stroke-linejoin:round;">
<path d="M168.0493 116.6241
L168.8343 101.6447
" />
<path d="M168.8343 101.6447
L183.8137 102.4297
" />
<path d="M183.0287 117.4092
L168.0493 116.6241
" />
<path d="M183.8137 102.4297
L183.0287 117.4092
" />
<path style="fill:none; 
stroke:#000000; stroke-width:0.1000; stroke-opacity:1; 
stroke-linecap:round; stroke-linejoin:round;fill:none"
d="M 186.1916,100.5266
185.2038,119.3757
165.9302,118.3656
166.9180,99.5165
Z" /> 
</g>
<g style="fill:none; 
stroke:#000000; stroke-width:0.1000; stroke-opacity:1; 
stroke-linecap:round; stroke-linejoin:round;">
<path d="M54.5958 76.6382
L56.3958 76.6382
" />
<path d="M54.5958 79.4382
L54.5958 76.6382
" />
<path d="M55.0958 77.7882
L55.8958 77.7882
" />
<path d="M55.4958 77.7882
L55.4958 77.2882
" />
<path d="M55.4958 78.3882
L54.9458 78.3882
" />
<path d="M55.4958 78.3882
L55.0958 77.7882
" />
<path d="M55.4958 78.3882
L56.0458 78.3882
" />
<path d="M55.4958 78.7882
L55.4958 78.3882
" />
<path d="M55.8958 77.7882
L55.4958 78.3882
" />
<path d="M56.3958 76.6382
L56.3958 79.4382
" />
<path d="M56.3958 79.4382
L54.5958 79.4382
" />
</g>
<g style="fill:none; 
stroke:#000000; stroke-width:0.1500; stroke-opacity:1; 
stroke-linecap:round; stroke-linejoin:round;">
<path d="M130.2493 72.9286
L130.5111 57.9309
" />
<path d="M130.5111 57.9309
L145.5088 58.1927
" />
<path d="M145.2470 73.1904
L130.2493 72.9286
" />
<path d="M145.5088 58.1927
L145.2470 73.1904
" />
<path style="fill:none; 
stroke:#000000; stroke-width:0.1000; stroke-opacity:1; 
stroke-linecap:round; stroke-linejoin:round;fill:none"
d="M 147.8188,56.2077
147.4893,75.0798
128.1923,74.7430
128.5217,55.8709
Z" /> 
</g>
<g style="fill:none; 
stroke:#000000; stroke-width:0.1500; stroke-opacity:1; 
stroke-linecap:round; stroke-linejoin:round;">
<path d="M39.7016 152.1763
L54.6650 151.1299
" />
<path d="M40.7479 167.1397
L39.7016 152.1763
" />
<path d="M54.6650 151.1299
L55.7114 166.0934
" />
<path d="M55.7114 166.0934
L40.7479 167.1397
" />
<path style="fill:none; 
stroke:#000000; stroke-width:0.1000; stroke-opacity:1; 
stroke-linecap:round; stroke-linejoin:round;fill:none"
d="M 58.1099,167.7802
38.8569,169.1265
37.5402,150.2974
56.7932,148.9511
Z" /> 
</g>
<g style="fill:none; 
stroke:#000000; stroke-width:0.1000; stroke-opacity:1; 
stroke-linecap:round; stroke-linejoin:round;">
<path d="M46.5682 72.2536
L47.8182 72.2536
" />
<path d="M46.5682 74.2536
L46.5682 72.2536
" />
<path d="M47.8182 72.2536
L47.8182 74.2536
" />
<path d="M47.8182 74.2536
L46.5682 74.2536
" />
<path d="M38.9615 63.5956
L40.2115 63.5956
" />
<path d="M38.9615 65.5956
L38.9615 63.5956
" />
<path d="M40.2115 63.5956
L40.2115 65.5956
" />
<path d="M40.2115 65.5956
L38.9615 65.5956
" />
</g>
<g style="fill:none; 
stroke:#000000; stroke-width:0.1500; stroke-opacity:1; 
stroke-linecap:round; stroke-linejoin:round;">
<path d="M109.9208 38.7181
L124.9208 38.7181
" />
<path d="M109.9208 53.7181
L109.9208 38.7181
" />
<path d="M124.9208 38.7181
L124.9208 53.7181
" />
<path d="M124.9208 53.7181
L109.9208 53.7181
" />
<path style="fill:none; 
stroke:#000000; stroke-width:0.1000; stroke-opacity:1; 
stroke-linecap:round; stroke-linejoin:round;fill:none"
d="M 107.8958,36.6931
127.1958,36.6931
127.1958,55.5681
107.8958,55.5681
Z" /> 
</g>
<g style="fill:none; 
stroke:#000000; stroke-width:0.1500; stroke-opacity:1; 
stroke-linecap:round; stroke-linejoin:round;">
<path d="M65.0697 133.2337
L80.0331 132.1873
" />
<path d="M66.1160 148.1971
L65.0697 133.2337
" />
<path d="M80.0331 132.1873
L81.0795 147.1508
" />
<path d="M81.0795 147.1508
L66.1160 148.1971
" />
<path style="fill:none; 
stroke:#000000; stroke-width:0.1000; stroke-opacity:1; 
stroke-linecap:round; stroke-linejoin:round;fill:none"
d="M 83.4780,148.8376
64.2250,150.1839
62.9083,131.3549
82.1613,130.0086
Z" /> 
</g>
<g style="fill:none; 
stroke:#000000; stroke-width:0.1500; stroke-opacity:1; 
stroke-linecap:round; stroke-linejoin:round;">
<path d="M191.2956 67.2658
L192.3419 52.3024
" />
<path d="M192.3419 52.3024
L207.3054 53.3487
" />
<path d="M206.2590 68.3122
L191.2956 67.2658
" />
<path d="M207.3054 53.3487
L206.2590 68.3122
" />
<path style="fill:none; 
stroke:#000000; stroke-width:0.1000; stroke-opacity:1; 
stroke-linecap:round; stroke-linejoin:round;fill:none"
d="M 209.7161,51.4873
208.3994,70.3164
189.1465,68.9701
190.4631,50.1410
Z" /> 
</g>
<g style="fill:none; 
stroke:#000000; stroke-width:0.1500; stroke-opacity:1; 
stroke-linecap:round; stroke-linejoin:round;">
<path d="M130.5795 53.9823
L130.8413 38.9846
" />
<path d="M130.8413 38.9846
L145.8390 39.2464
" />
<path d="M145.5772 54.2441
L130.5795 53.9823
" />
<path d="M145.8390 39.2464
L145.5772 54.2441
" />
<path style="fill:none; 
stroke:#000000; stroke-width:0.1000; stroke-opacity:1; 
stroke-linecap:round; stroke-linejoin:round;fill:none"
d="M 148.1490,37.2614
147.8196,56.1335
128.5225,55.7967
128.8520,36.9245
Z" /> 
</g>
<g style="fill:none; 
stroke:#000000; stroke-width:0.1500; stroke-opacity:1; 
stroke-linecap:round; stroke-linejoin:round;">
<path d="M171.0313 59.8852
L171.8164 44.9058
" />
<path d="M171.8164 44.9058
L186.7958 45.6908
" />
<path d="M186.0108 60.6703
L171.0313 59.8852
" />
<path d="M186.7958 45.6908
L186.0108 60.6703
" />
<path style="fill:none; 
stroke:#000000; stroke-width:0.1000; stroke-opacity:1; 
stroke-linecap:round; stroke-linejoin:round;fill:none"
d="M 189.1737,43.7877
188.1858,62.6368
168.9123,61.6267
169.9001,42.7776
Z" /> 
</g>
<g style="fill:none; 
stroke:#000000; stroke-width:0.1500; stroke-opacity:1; 
stroke-linecap:round; stroke-linejoin:round;">
<path d="M189.9326 86.1840
L190.9789 71.2205
" />
<path d="M190.9789 71.2205
L205.9424 72.2669
" />
<path d="M204.8961 87.2304
L189.9326 86.1840
" />
<path d="M205.9424 72.2669
L204.8961 87.2304
" />
<path style="fill:none; 
stroke:#000000; stroke-width:0.1000; stroke-opacity:1; 
stroke-linecap:round; stroke-linejoin:round;fill:none"
d="M 208.3531,70.4055
207.0365,89.2345
187.7835,87.8882
189.1001,69.0592
Z" /> 
</g>
<g style="fill:none; 
stroke:#000000; stroke-width:0.1500; stroke-opacity:1; 
stroke-linecap:round; stroke-linejoin:round;">
<path d="M150.1230 73.3621
L150.6465 58.3712
" />
<path d="M150.6465 58.3712
L165.6373 58.8947
" />
<path d="M165.1138 73.8856
L150.1230 73.3621
" />
<path d="M165.6373 58.8947
L165.1138 73.8856
" />
<path style="fill:none; 
stroke:#000000; stroke-width:0.1000; stroke-opacity:1; 
stroke-linecap:round; stroke-linejoin:round;fill:none"
d="M 167.9816,56.9503
167.3229,75.8138
148.0346,75.1403
148.6934,56.2768
Z" /> 
</g>
<g style="fill:none; 
stroke:#000000; stroke-width:0.1500; stroke-opacity:1; 
stroke-linecap:round; stroke-linejoin:round;">
<path d="M90.0750 52.6571
L105.0750 52.6571
" />
<path d="M90.0750 67.6571
L90.0750 52.6571
" />
<path d="M105.0750 52.6571
L105.0750 67.6571
" />
<path d="M105.0750 67.6571
L90.0750 67.6571
" />
<path style="fill:none; 
stroke:#000000; stroke-width:0.1000; stroke-opacity:1; 
stroke-linecap:round; stroke-linejoin:round;fill:none"
d="M 88.0500,50.6321
107.3500,50.6321
107.3500,69.5071
88.0500,69.5071
Z" /> 
</g>
<g style="fill:none; 
stroke:#000000; stroke-width:0.1500; stroke-opacity:1; 
stroke-linecap:round; stroke-linejoin:round;">
<path d="M149.4769 92.2786
L150.0004 77.2877
" />
<path d="M150.0004 77.2877
L164.9913 77.8112
" />
<path d="M164.4678 92.8021
L149.4769 92.2786
" />
<path d="M164.9913 77.8112
L164.4678 92.8021
" />
<path style="fill:none; 
stroke:#000000; stroke-width:0.1000; stroke-opacity:1; 
stroke-linecap:round; stroke-linejoin:round;fill:none"
d="M 167.3356,75.8668
166.6768,94.7303
147.3886,94.0568
148.0473,75.1933
Z" /> 
</g>
<g style="fill:none; 
stroke:#000000; stroke-width:0.1500; stroke-opacity:1; 
stroke-linecap:round; stroke-linejoin:round;">
<path d="M129.9124 91.8403
L130.1742 76.8426
" />
<path d="M130.1742 76.8426
L145.1719 77.1044
" />
<path d="M144.9101 92.1021
L129.9124 91.8403
" />
<path d="M145.1719 77.1044
L144.9101 92.1021
" />
<path style="fill:none; 
stroke:#000000; stroke-width:0.1000; stroke-opacity:1; 
stroke-linecap:round; stroke-linejoin:round;fill:none"
d="M 147.4819,75.1194
147.1525,93.9915
127.8555,93.6547
128.1849,74.7826
Z" /> 
</g>
<g style="fill:none; 
stroke:#000000; stroke-width:0.1500; stroke-opacity:1; 
stroke-linecap:round; stroke-linejoin:round;">
<path d="M187.3093 124.0167
L188.3556 109.0533
" />
<path d="M188.3556 109.0533
L203.3191 110.0996
" />
<path d="M202.2727 125.0631
L187.3093 124.0167
" />
<path d="M203.3191 110.0996
L202.2727 125.0631
" />
<path style="fill:none; 
stroke:#000000; stroke-width:0.1000; stroke-opacity:1; 
stroke-linecap:round; stroke-linejoin:round;fill:none"
d="M 205.7298,108.2383
204.4132,127.0673
185.1602,125.7210
186.4768,106.8920
Z" /> 
</g>
<g style="fill:none; 
stroke:#000000; stroke-width:0.1500; stroke-opacity:1; 
stroke-linecap:round; stroke-linejoin:round;">
<path d="M150.7851 54.3359
L151.3086 39.3451
" />
<path d="M151.3086 39.3451
L166.2995 39.8686
" />
<path d="M165.7760 54.8594
L150.7851 54.3359
" />
<path d="M166.2995 39.8686
L165.7760 54.8594
" />
<path style="fill:none; 
stroke:#000000; stroke-width:0.1000; stroke-opacity:1; 
stroke-linecap:round; stroke-linejoin:round;fill:none"
d="M 168.6438,37.9242
167.9850,56.7877
148.6968,56.1141
149.3555,37.2506
Z" /> 
</g>
<g style="fill:none; 
stroke:#000000; stroke-width:0.1500; stroke-opacity:1; 
stroke-linecap:round; stroke-linejoin:round;">
<path d="M188.6154 105.1334
L189.6617 90.1699
" />
<path d="M189.6617 90.1699
L204.6252 91.2163
" />
<path d="M203.5788 106.1797
L188.6154 105.1334
" />
<path d="M204.6252 91.2163
L203.5788 106.1797
" />
<path style="fill:none; 
stroke:#000000; stroke-width:0.1000; stroke-opacity:1; 
stroke-linecap:round; stroke-linejoin:round;fill:none"
d="M 207.0359,89.3549
205.7193,108.1839
186.4663,106.8376
187.7829,88.0086
Z" /> 
</g>
<g style="fill:none; 
stroke:#000000; stroke-width:0.1500; stroke-opacity:1; 
stroke-linecap:round; stroke-linejoin:round;">
<path d="M90.0348 90.7425
L105.0348 90.7425
" />
<path d="M90.0348 105.7425
L90.0348 90.7425
" />
<path d="M105.0348 90.7425
L105.0348 105.7425
" />
<path d="M105.0348 105.7425
L90.0348 105.7425
" />
<path style="fill:none; 
stroke:#000000; stroke-width:0.1000; stroke-opacity:1; 
stroke-linecap:round; stroke-linejoin:round;fill:none"
d="M 88.0098,88.7175
107.3098,88.7175
107.3098,107.5925
88.0098,107.5925
Z" /> 
</g>
<g style="fill:none; 
stroke:#000000; stroke-width:0.1500; stroke-opacity:1; 
stroke-linecap:round; stroke-linejoin:round;">
<path d="M69.1537 113.4074
L84.1172 112.3611
" />
<path d="M70.2001 128.3709
L69.1537 113.4074
" />
<path d="M84.1172 112.3611
L85.1635 127.3245
" />
<path d="M85.1635 127.3245
L70.2001 128.3709
" />
<path style="fill:none; 
stroke:#000000; stroke-width:0.1000; stroke-opacity:1; 
stroke-linecap:round; stroke-linejoin:round;fill:none"
d="M 87.5620,129.0113
68.3091,130.3576
66.9924,111.5286
86.2454,110.1823
Z" /> 
</g>
<g style="fill:none; 
stroke:#000000; stroke-width:0.1000; stroke-opacity:1; 
stroke-linecap:round; stroke-linejoin:round;">
<path d="M42.2022 77.7434
L44.2022 77.7434
" />
<path d="M42.2022 78.9934
L42.2022 77.7434
" />
<path d="M44.2022 77.7434
L44.2022 78.9934
" />
<path d="M44.2022 78.9934
L42.2022 78.9934
" />
<path d="M42.1514 75.7368
L44.1514 75.7368
" />
<path d="M42.1514 76.9868
L42.1514 75.7368
" />
<path d="M44.1514 75.7368
L44.1514 76.9868
" />
<path d="M44.1514 76.9868
L42.1514 76.9868
" />
</g>
<g style="fill:none; 
stroke:#000000; stroke-width:0.1500; stroke-opacity:1; 
stroke-linecap:round; stroke-linejoin:round;">
<path d="M169.0619 97.7069
L169.8470 82.7275
" />
<path d="M169.8470 82.7275
L184.8264 83.5125
" />
<path d="M184.0414 98.4920
L169.0619 97.7069
" />
<path d="M184.8264 83.5125
L184.0414 98.4920
" />
<path style="fill:none; 
stroke:#000000; stroke-width:0.1000; stroke-opacity:1; 
stroke-linecap:round; stroke-linejoin:round;fill:none"
d="M 187.2043,81.6094
186.2165,100.4585
166.9429,99.4484
167.9307,80.5993
Z" /> 
</g>
<g style="fill:none; 
stroke:#000000; stroke-width:0.1500; stroke-opacity:1; 
stroke-linecap:round; stroke-linejoin:round;">
<path d="M170.0218 78.7338
L170.8069 63.7544
" />
<path d="M170.8069 63.7544
L185.7863 64.5394
" />
<path d="M185.0013 79.5189
L170.0218 78.7338
" />
<path d="M185.7863 64.5394
L185.0013 79.5189
" />
<path style="fill:none; 
stroke:#000000; stroke-width:0.1000; stroke-opacity:1; 
stroke-linecap:round; stroke-linejoin:round;fill:none"
d="M 188.1642,62.6363
187.1763,81.4854
167.9028,80.4753
168.8906,61.6262
Z" /> 
</g>
<g style="fill:none; 
stroke:#000000; stroke-width:0.1500; stroke-opacity:1; 
stroke-linecap:round; stroke-linejoin:round;">
<path d="M109.9415 57.6946
L124.9415 57.6946
" />
<path d="M109.9415 72.6946
L109.9415 57.6946
" />
<path d="M124.9415 57.6946
L124.9415 72.6946
" />
<path d="M124.9415 72.6946
L109.9415 72.6946
" />
<path style="fill:none; 
stroke:#000000; stroke-width:0.1000; stroke-opacity:1; 
stroke-linecap:round; stroke-linejoin:round;fill:none"
d="M 107.9165,55.6696
127.2165,55.6696
127.2165,74.5446
107.9165,74.5446
Z" /> 
</g>
<g style="fill:none; 
stroke:#000000; stroke-width:0.1200; stroke-opacity:1; 
stroke-linecap:round; stroke-linejoin:round;">
<path d="M39.0776 81.0370
L60.0776 81.0370
" />
<path d="M39.0776 82.3370
L40.3776 81.0370
" />
<path d="M39.0776 132.0370
L39.0776 81.0370
" />
<path d="M60.0776 81.0370
L60.0776 132.0370
" />
<path d="M60.0776 132.0370
L39.0776 132.0370
" />
</g>
<g style="fill:none; 
stroke:#000000; stroke-width:0.1500; stroke-opacity:1; 
stroke-linecap:round; stroke-linejoin:round;">
<path d="M60.9695 152.5748
L75.9329 151.5285
" />
<path d="M62.0158 167.5383
L60.9695 152.5748
" />
<path d="M75.9329 151.5285
L76.9793 166.4919
" />
<path d="M76.9793 166.4919
L62.0158 167.5383
" />
<path style="fill:none; 
stroke:#000000; stroke-width:0.1000; stroke-opacity:1; 
stroke-linecap:round; stroke-linejoin:round;fill:none"
d="M 79.3778,168.1787
60.1248,169.5250
58.8081,150.6960
78.0611,149.3497
Z" /> 
</g>
<g style="fill:none; 
stroke:#000000; stroke-width:0.1500; stroke-opacity:1; 
stroke-linecap:round; stroke-linejoin:round;">
<path d="M67.8579 94.4833
L82.8214 93.4369
" />
<path d="M68.9043 109.4467
L67.8579 94.4833
" />
<path d="M82.8214 93.4369
L83.8677 108.4004
" />
<path d="M83.8677 108.4004
L68.9043 109.4467
" />
<path style="fill:none; 
stroke:#000000; stroke-width:0.1000; stroke-opacity:1; 
stroke-linecap:round; stroke-linejoin:round;fill:none"
d="M 86.2662,110.0872
67.0133,111.4335
65.6966,92.6045
84.9496,91.2582
Z" /> 
</g>
<g style="fill:none; 
stroke:#000000; stroke-width:0.1500; stroke-opacity:1; 
stroke-linecap:round; stroke-linejoin:round;">
<path d="M150.4072 135.0018
L151.1922 120.0224
" />
<path d="M151.1922 120.0224
L166.1716 120.8074
" />
<path d="M165.3866 135.7869
L150.4072 135.0018
" />
<path d="M166.1716 120.8074
L165.3866 135.7869
" />
<path style="fill:none; 
stroke:#000000; stroke-width:0.1000; stroke-opacity:1; 
stroke-linecap:round; stroke-linejoin:round;fill:none"
d="M 168.5495,118.9043
167.5617,137.7534
148.2881,136.7433
149.2759,117.8942
Z" /> 
</g>
<g style="fill:none; 
stroke:#000000; stroke-width:0.1500; stroke-opacity:1; 
stroke-linecap:round; stroke-linejoin:round;">
<path d="M66.4910 75.5549
L81.4545 74.5086
" />
<path d="M67.5374 90.5184
L66.4910 75.5549
" />
<path d="M81.4545 74.5086
L82.5008 89.4720
" />
<path d="M82.5008 89.4720
L67.5374 90.5184
" />
<path style="fill:none; 
stroke:#000000; stroke-width:0.1000; stroke-opacity:1; 
stroke-linecap:round; stroke-linejoin:round;fill:none"
d="M 84.8993,91.1588
65.6463,92.5051
64.3297,73.6761
83.5827,72.3298
Z" /> 
</g>
<g style="fill:none; 
stroke:#000000; stroke-width:0.1000; stroke-opacity:1; 
stroke-linecap:round; stroke-linejoin:round;">
<path d="M36.9520 63.6210
L38.2020 63.6210
" />
<path d="M36.9520 65.6210
L36.9520 63.6210
" />
<path d="M38.2020 63.6210
L38.2020 65.6210
" />
<path d="M38.2020 65.6210
L36.9520 65.6210
" />
<path d="M42.1514 73.5270
L44.1514 73.5270
" />
<path d="M42.1514 74.7770
L42.1514 73.5270
" />
<path d="M44.1514 73.5270
L44.1514 74.7770
" />
<path d="M44.1514 74.7770
L42.1514 74.7770
" />
</g>
<g style="fill:none; 
stroke:#000000; stroke-width:0.1500; stroke-opacity:1; 
stroke-linecap:round; stroke-linejoin:round;">
<path d="M109.9685 76.7165
L124.9685 76.7165
" />
<path d="M109.9685 91.7165
L109.9685 76.7165
" />
<path d="M124.9685 76.7165
L124.9685 91.7165
" />
<path d="M124.9685 91.7165
L109.9685 91.7165
" />
<path style="fill:none; 
stroke:#000000; stroke-width:0.1000; stroke-opacity:1; 
stroke-linecap:round; stroke-linejoin:round;fill:none"
d="M 107.9435,74.6915
127.2435,74.6915
127.2435,93.5665
107.9435,93.5665
Z" /> 
</g>
<g style="fill:none; 
stroke:#000000; stroke-width:0.0500; stroke-opacity:1; 
stroke-linecap:round; stroke-linejoin:round;">
<path d="M106.7784 36.1536
L169.4656 36.1536
" />
<path d="M53.1590 62.3410
L53.1336 58.7088
" />
<path d="M169.4656 36.1536
L209.4198 51.5206
" />
<path d="M83.5628 170.1640
L209.5500 125.6284
" />
<path d="M34.2360 170.1386
L83.5628 170.1640
" />
<path d="M209.5500 125.6284
L209.4198 51.5206
" />
<path d="M53.1336 58.7088
L106.7784 36.1536
" />
<path d="M34.2360 170.1386
L34.3122 62.3410
" />
<path d="M53.1590 62.3410
L34.3122 62.3410
" />
</g>
<g style="fill:none; 
stroke:#000000; stroke-width:0.1200; stroke-opacity:1; 
stroke-linecap:round; stroke-linejoin:round;">
<path d="M155.4273 91.6539
L155.5320 88.6557
" />
<path d="M155.5320 88.6557
L158.9300 88.7744
" />
<path d="M158.8253 91.7726
L155.4273 91.6539
" />
<path d="M158.9300 88.7744
L158.8253 91.7726
" />
<path d="M135.8503 91.1568
L135.9026 88.1573
" />
<path d="M135.9026 88.1573
L139.3021 88.2166
" />
<path d="M139.2498 91.2162
L135.8503 91.1568
" />
<path d="M139.3021 88.2166
L139.2498 91.2162
" />
<path d="M156.0714 72.7941
L156.1761 69.7959
" />
<path d="M156.1761 69.7959
L159.5740 69.9145
" />
<path d="M159.4693 72.9127
L156.0714 72.7941
" />
<path d="M159.5740 69.9145
L159.4693 72.9127
" />
<path d="M136.1866 72.2756
L136.2389 69.2761
" />
<path d="M136.2389 69.2761
L139.6384 69.3354
" />
<path d="M139.5860 72.3350
L136.1866 72.2756
" />
<path d="M139.6384 69.3354
L139.5860 72.3350
" />
<path d="M136.5169 53.3247
L136.5693 50.3252
" />
<path d="M136.5693 50.3252
L139.9687 50.3845
" />
<path d="M139.9164 53.3841
L136.5169 53.3247
" />
<path d="M139.9687 50.3845
L139.9164 53.3841
" />
<path d="M96.0000 63.8792
L99.4000 63.8792
" />
<path d="M96.0000 66.8792
L96.0000 63.8792
" />
<path d="M99.4000 63.8792
L99.4000 66.8792
" />
<path d="M99.4000 66.8792
L96.0000 66.8792
" />
<path d="M193.2747 123.6463
L193.4839 120.6536
" />
<path d="M193.4839 120.6536
L196.8756 120.8908
" />
<path d="M196.6664 123.8835
L193.2747 123.6463
" />
<path d="M196.8756 120.8908
L196.6664 123.8835
" />
<path d="M176.1768 59.6889
L176.3339 56.6930
" />
<path d="M176.3339 56.6930
L179.7292 56.8709
" />
<path d="M179.5722 59.8668
L176.1768 59.6889
" />
<path d="M179.7292 56.8709
L179.5722 59.8668
" />
<path d="M67.6636 163.3666
L71.0553 163.1294
" />
<path d="M67.8728 166.3592
L67.6636 163.3666
" />
<path d="M71.0553 163.1294
L71.2645 166.1221
" />
<path d="M71.2645 166.1221
L67.8728 166.3592
" />
<path d="M197.2587 66.9274
L197.4680 63.9348
" />
<path d="M197.4680 63.9348
L200.8597 64.1719
" />
<path d="M200.6504 67.1646
L197.2587 66.9274
" />
<path d="M200.8597 64.1719
L200.6504 67.1646
" />
<path d="M195.8969 85.8283
L196.1062 82.8356
" />
<path d="M196.1062 82.8356
L199.4979 83.0728
" />
<path d="M199.2887 86.0655
L195.8969 85.8283
" />
<path d="M199.4979 83.0728
L199.2887 86.0655
" />
<path d="M156.7343 53.7477
L156.8390 50.7496
" />
<path d="M156.8390 50.7496
L160.2369 50.8682
" />
<path d="M160.1322 53.8664
L156.7343 53.7477
" />
<path d="M160.2369 50.8682
L160.1322 53.8664
" />
<path d="M95.9598 101.9782
L99.3598 101.9782
" />
<path d="M95.9598 104.9782
L95.9598 101.9782
" />
<path d="M99.3598 101.9782
L99.3598 104.9782
" />
<path d="M99.3598 104.9782
L95.9598 104.9782
" />
<path d="M74.5522 105.2771
L77.9439 105.0399
" />
<path d="M74.7614 108.2698
L74.5522 105.2771
" />
<path d="M77.9439 105.0399
L78.1532 108.0326
" />
<path d="M78.1532 108.0326
L74.7614 108.2698
" />
<path d="M71.8476 67.4468
L75.2393 67.2097
" />
<path d="M72.0569 70.4395
L71.8476 67.4468
" />
<path d="M75.2393 67.2097
L75.4486 70.2023
" />
<path d="M75.4486 70.2023
L72.0569 70.4395
" />
<path d="M156.3642 134.5450
L156.5212 131.5491
" />
<path d="M156.5212 131.5491
L159.9166 131.7271
" />
<path d="M159.7596 134.7230
L156.3642 134.5450
" />
<path d="M159.9166 131.7271
L159.7596 134.7230
" />
<path d="M135.5122 110.1530
L135.5645 107.1535
" />
<path d="M135.5645 107.1535
L138.9640 107.2128
" />
<path d="M138.9117 110.2124
L135.5122 110.1530
" />
<path d="M138.9640 107.2128
L138.9117 110.2124
" />
<path d="M154.8145 110.6611
L154.9192 107.6629
" />
<path d="M154.9192 107.6629
L158.3171 107.7815
" />
<path d="M158.2124 110.7797
L154.8145 110.6611
" />
<path d="M158.3171 107.7815
L158.2124 110.7797
" />
<path d="M175.9780 78.2948
L176.1350 75.2989
" />
<path d="M176.1350 75.2989
L179.5303 75.4768
" />
<path d="M179.3733 78.4727
L175.9780 78.2948
" />
<path d="M179.5303 75.4768
L179.3733 78.4727
" />
<path d="M95.9725 82.9609
L99.3725 82.9609
" />
<path d="M95.9725 85.9609
L95.9725 82.9609
" />
<path d="M99.3725 82.9609
L99.3725 85.9609
" />
<path d="M99.3725 85.9609
L95.9725 85.9609
" />
<path d="M115.9222 106.9359
L119.3222 106.9359
" />
<path d="M115.9222 109.9359
L115.9222 106.9359
" />
<path d="M119.3222 106.9359
L119.3222 109.9359
" />
<path d="M119.3222 109.9359
L115.9222 109.9359
" />
<path d="M174.0059 116.1747
L174.1629 113.1788
" />
<path d="M174.1629 113.1788
L177.5583 113.3567
" />
<path d="M177.4013 116.3526
L174.0059 116.1747
" />
<path d="M177.5583 113.3567
L177.4013 116.3526
" />
<path d="M115.8665 68.9414
L119.2665 68.9414
" />
<path d="M115.8665 71.9414
L115.8665 68.9414
" />
<path d="M119.2665 68.9414
L119.2665 71.9414
" />
<path d="M119.2665 71.9414
L115.8665 71.9414
" />
<path d="M115.8458 49.9331
L119.2458 49.9331
" />
<path d="M115.8458 52.9331
L115.8458 49.9331
" />
<path d="M119.2458 49.9331
L119.2458 52.9331
" />
<path d="M119.2458 52.9331
L115.8458 52.9331
" />
<path d="M194.5804 104.7684
L194.7896 101.7757
" />
<path d="M194.7896 101.7757
L198.1814 102.0129
" />
<path d="M197.9721 105.0056
L194.5804 104.7684
" />
<path d="M198.1814 102.0129
L197.9721 105.0056
" />
<path d="M175.0189 97.2534
L175.1759 94.2575
" />
<path d="M175.1759 94.2575
L178.5712 94.4354
" />
<path d="M178.4142 97.4313
L175.0189 97.2534
" />
<path d="M178.5712 94.4354
L178.4142 97.4313
" />
<path d="M71.7624 144.0055
L75.1541 143.7684
" />
<path d="M71.9716 146.9982
L71.7624 144.0055
" />
<path d="M75.1541 143.7684
L75.3634 146.7610
" />
<path d="M75.3634 146.7610
L71.9716 146.9982
" />
<path d="M91.1258 143.2546
L94.5175 143.0174
" />
<path d="M91.3351 146.2473
L91.1258 143.2546
" />
<path d="M94.5175 143.0174
L94.7268 146.0101
" />
<path d="M94.7268 146.0101
L91.3351 146.2473
" />
<path d="M75.8486 124.2096
L79.2403 123.9724
" />
<path d="M76.0578 127.2023
L75.8486 124.2096
" />
<path d="M79.2403 123.9724
L79.4495 126.9651
" />
<path d="M79.4495 126.9651
L76.0578 127.2023
" />
<path d="M46.3976 162.9954
L49.7893 162.7582
" />
<path d="M46.6068 165.9881
L46.3976 162.9954
" />
<path d="M49.7893 162.7582
L49.9986 165.7509
" />
<path d="M49.9986 165.7509
L46.6068 165.9881
" />
<path d="M115.8935 87.9364
L119.2935 87.9364
" />
<path d="M115.8935 90.9364
L115.8935 87.9364
" />
<path d="M119.2935 87.9364
L119.2935 90.9364
" />
<path d="M119.2935 90.9364
L115.8935 90.9364
" />
<path d="M73.1859 86.3586
L76.5777 86.1214
" />
<path d="M73.3952 89.3513
L73.1859 86.3586
" />
<path d="M76.5777 86.1214
L76.7869 89.1141
" />
<path d="M76.7869 89.1141
L73.3952 89.3513
" />
</g> 
</svg>
