<?xml version="1.0" encoding="UTF-8" standalone="no"?>
<svg
   version="1.1"
   width="297.0022mm"
   height="210.0072mm"
   viewBox="0.0000 0.0000 297.0022 210.0072"
   id="svg341"
   sodipodi:docname="Tastatur_umriss-Edge_Cuts.svg"
   xmlns:inkscape="http://www.inkscape.org/namespaces/inkscape"
   xmlns:sodipodi="http://sodipodi.sourceforge.net/DTD/sodipodi-0.dtd"
   xmlns="http://www.w3.org/2000/svg"
   xmlns:svg="http://www.w3.org/2000/svg">
  <defs
     id="defs341" />
  <sodipodi:namedview
     id="namedview341"
     pagecolor="#ffffff"
     bordercolor="#000000"
     borderopacity="0.25"
     inkscape:showpageshadow="2"
     inkscape:pageopacity="0.0"
     inkscape:pagecheckerboard="0"
     inkscape:deskcolor="#d1d1d1"
     inkscape:document-units="mm" />
  <title
     id="title1">SVG Image created as Tastatur_umriss-Edge_Cuts.svg date 2024/09/19 00:08:19 </title>
  <desc
     id="desc1">Image generated by PCBNEW </desc>
  <g
     style="fill:#000000; fill-opacity:1.0000;stroke:#000000; stroke-opacity:1.0000; stroke-linecap:round; stroke-linejoin:round;"
     transform="translate(0 0) scale(1 1)"
     id="g1" />
  <g
     style="fill:none;  stroke:#000000; stroke-width:0.0500; stroke-opacity:1;  stroke-linecap:round; stroke-linejoin:round;"
     id="g9">
    <path
       d="M106.7784 36.1536 L169.4656 36.1536 "
       id="path1" />
    <path
       d="M53.1590 62.3410 L53.1336 58.7088 "
       id="path2" />
    <path
       d="M169.4656 36.1536 L209.4198 51.5206 "
       id="path3" />
    <path
       d="M83.5628 170.1640 L209.5500 125.6284 "
       id="path4" />
    <path
       d="M34.2360 170.1386 L83.5628 170.1640 "
       id="path5" />
    <path
       d="M209.5500 125.6284 L209.4198 51.5206 "
       id="path6" />
    <path
       d="M53.1336 58.7088 L106.7784 36.1536 "
       id="path7" />
    <path
       d="M34.2360 170.1386 L34.3122 62.3410 "
       id="path8" />
    <path
       d="M53.1590 62.3410 L34.3122 62.3410 "
       id="path9" />
  </g>
  <g
     style="fill:none;  stroke:#000000; stroke-width:0.1200; stroke-opacity:1;  stroke-linecap:round; stroke-linejoin:round;"
     id="g137">
    <path
       d="M67.6636 163.3666 L71.0553 163.1294 "
       id="path42" />
    <path
       d="M67.8728 166.3592 L67.6636 163.3666 "
       id="path43" />
    <path
       d="M71.0553 163.1294 L71.2645 166.1221 "
       id="path44" />
    <path
       d="M71.2645 166.1221 L67.8728 166.3592 "
       id="path45" />
    <path
       d="M95.9598 101.9782 L99.3598 101.9782 "
       id="path58" />
    <path
       d="M95.9598 104.9782 L95.9598 101.9782 "
       id="path59" />
    <path
       d="M99.3598 101.9782 L99.3598 104.9782 "
       id="path60" />
    <path
       d="M99.3598 104.9782 L95.9598 104.9782 "
       id="path61" />
    <path
       d="M74.5522 105.2771 L77.9439 105.0399 "
       id="path62" />
    <path
       d="M74.7614 108.2698 L74.5522 105.2771 "
       id="path63" />
    <path
       d="M77.9439 105.0399 L78.1532 108.0326 "
       id="path64" />
    <path
       d="M78.1532 108.0326 L74.7614 108.2698 "
       id="path65" />
    <path
       d="M71.7624 144.0055 L75.1541 143.7684 "
       id="path114" />
    <path
       d="M71.9716 146.9982 L71.7624 144.0055 "
       id="path115" />
    <path
       d="M75.1541 143.7684 L75.3634 146.7610 "
       id="path116" />
    <path
       d="M75.3634 146.7610 L71.9716 146.9982 "
       id="path117" />
    <path
       d="M91.1258 143.2546 L94.5175 143.0174 "
       id="path118" />
    <path
       d="M91.3351 146.2473 L91.1258 143.2546 "
       id="path119" />
    <path
       d="M94.5175 143.0174 L94.7268 146.0101 "
       id="path120" />
    <path
       d="M94.7268 146.0101 L91.3351 146.2473 "
       id="path121" />
    <path
       d="M75.8486 124.2096 L79.2403 123.9724 "
       id="path122" />
    <path
       d="M76.0578 127.2023 L75.8486 124.2096 "
       id="path123" />
    <path
       d="M79.2403 123.9724 L79.4495 126.9651 "
       id="path124" />
    <path
       d="M79.4495 126.9651 L76.0578 127.2023 "
       id="path125" />
    <path
       d="M46.3976 162.9954 L49.7893 162.7582 "
       id="path126" />
    <path
       d="M46.6068 165.9881 L46.3976 162.9954 "
       id="path127" />
    <path
       d="M49.7893 162.7582 L49.9986 165.7509 "
       id="path128" />
    <path
       d="M49.9986 165.7509 L46.6068 165.9881 "
       id="path129" />
    <path
       d="M73.1859 86.3586 L76.5777 86.1214 "
       id="path134" />
    <path
       d="M73.3952 89.3513 L73.1859 86.3586 "
       id="path135" />
    <path
       d="M76.5777 86.1214 L76.7869 89.1141 "
       id="path136" />
    <path
       d="M76.7869 89.1141 L73.3952 89.3513 "
       id="path137" />
  </g>
  <g
     style="fill:none;  stroke:#000000; stroke-width:0.1000; stroke-opacity:1;  stroke-linecap:round; stroke-linejoin:round;"
     id="g141">
    <path
       d="M41.4532 68.2645 L41.4532 60.9645 "
       id="path138" />
    <path
       d="M50.3932 60.9645 L41.4532 60.9645 "
       id="path139" />
    <path
       d="M50.3932 68.2645 L41.4532 68.2645 "
       id="path140" />
    <path
       d="M50.3932 68.2645 L50.3932 60.9645 "
       id="path141" />
  </g>
  <g
     style="fill:none;  stroke:#000000; stroke-width:0.1500; stroke-opacity:1;  stroke-linecap:round; stroke-linejoin:round;"
     id="g146">
    <path
       d="M65.1511 56.6204 L80.1145 55.5740 "
       id="path142" />
    <path
       d="M66.1974 71.5838 L65.1511 56.6204 "
       id="path143" />
    <path
       d="M80.1145 55.5740 L81.1609 70.5375 "
       id="path144" />
    <path
       d="M81.1609 70.5375 L66.1974 71.5838 "
       id="path145" />
  </g>
  <g
     style="fill:none;  stroke:#000000; stroke-width:0.1500; stroke-opacity:1;  stroke-linecap:round; stroke-linejoin:round;"
     id="g151">
    <path
       d="M148.8667 111.2097 L149.3902 96.2188 "
       id="path147" />
    <path
       d="M149.3902 96.2188 L164.3811 96.7423 "
       id="path148" />
    <path
       d="M163.8576 111.7332 L148.8667 111.2097 "
       id="path149" />
    <path
       d="M164.3811 96.7423 L163.8576 111.7332 "
       id="path150" />
  </g>
  <g
     style="fill:none;  stroke:#000000; stroke-width:0.1500; stroke-opacity:1;  stroke-linecap:round; stroke-linejoin:round;"
     id="g156">
    <path
       d="M90.0475 71.7238 L105.0475 71.7238 "
       id="path152" />
    <path
       d="M90.0475 86.7238 L90.0475 71.7238 "
       id="path153" />
    <path
       d="M105.0475 71.7238 L105.0475 86.7238 "
       id="path154" />
    <path
       d="M105.0475 86.7238 L90.0475 86.7238 "
       id="path155" />
  </g>
  <g
     style="fill:none;  stroke:#000000; stroke-width:0.1500; stroke-opacity:1;  stroke-linecap:round; stroke-linejoin:round;"
     id="g161">
    <path
       d="M109.9972 95.7096 L124.9972 95.7096 "
       id="path157" />
    <path
       d="M109.9972 110.7096 L109.9972 95.7096 "
       id="path158" />
    <path
       d="M124.9972 95.7096 L124.9972 110.7096 "
       id="path159" />
    <path
       d="M124.9972 110.7096 L109.9972 110.7096 "
       id="path160" />
  </g>
  <g
     style="fill:none;  stroke:#000000; stroke-width:0.1500; stroke-opacity:1;  stroke-linecap:round; stroke-linejoin:round;"
     id="g166">
    <path
       d="M84.9629 131.8683 L99.9264 130.8219 "
       id="path162" />
    <path
       d="M86.0093 146.8318 L84.9629 131.8683 "
       id="path163" />
    <path
       d="M99.9264 130.8219 L100.9727 145.7854 "
       id="path164" />
    <path
       d="M100.9727 145.7854 L86.0093 146.8318 "
       id="path165" />
  </g>
  <g
     style="fill:none;  stroke:#000000; stroke-width:0.1500; stroke-opacity:1;  stroke-linecap:round; stroke-linejoin:round;"
     id="g171">
    <path
       d="M129.5750 110.7996 L129.8368 95.8019 "
       id="path167" />
    <path
       d="M129.8368 95.8019 L144.8345 96.0637 "
       id="path168" />
    <path
       d="M144.5727 111.0614 L129.5750 110.7996 "
       id="path169" />
    <path
       d="M144.8345 96.0637 L144.5727 111.0614 "
       id="path170" />
  </g>
  <g
     style="fill:none;  stroke:#000000; stroke-width:0.1500; stroke-opacity:1;  stroke-linecap:round; stroke-linejoin:round;"
     id="g176">
    <path
       d="M168.0493 116.6241 L168.8343 101.6447 "
       id="path172" />
    <path
       d="M168.8343 101.6447 L183.8137 102.4297 "
       id="path173" />
    <path
       d="M183.0287 117.4092 L168.0493 116.6241 "
       id="path174" />
    <path
       d="M183.8137 102.4297 L183.0287 117.4092 "
       id="path175" />
  </g>
  <g
     style="fill:none;  stroke:#000000; stroke-width:0.1000; stroke-opacity:1;  stroke-linecap:round; stroke-linejoin:round;"
     id="g187">
    <path
       d="M54.5958 76.6382 L56.3958 76.6382 "
       id="path177" />
    <path
       d="M54.5958 79.4382 L54.5958 76.6382 "
       id="path178" />
    <path
       d="M55.0958 77.7882 L55.8958 77.7882 "
       id="path179" />
    <path
       d="M55.4958 77.7882 L55.4958 77.2882 "
       id="path180" />
    <path
       d="M55.4958 78.3882 L54.9458 78.3882 "
       id="path181" />
    <path
       d="M55.4958 78.3882 L55.0958 77.7882 "
       id="path182" />
    <path
       d="M55.4958 78.3882 L56.0458 78.3882 "
       id="path183" />
    <path
       d="M55.4958 78.7882 L55.4958 78.3882 "
       id="path184" />
    <path
       d="M55.8958 77.7882 L55.4958 78.3882 "
       id="path185" />
    <path
       d="M56.3958 76.6382 L56.3958 79.4382 "
       id="path186" />
    <path
       d="M56.3958 79.4382 L54.5958 79.4382 "
       id="path187" />
  </g>
  <g
     style="fill:none;  stroke:#000000; stroke-width:0.1500; stroke-opacity:1;  stroke-linecap:round; stroke-linejoin:round;"
     id="g192">
    <path
       d="M130.2493 72.9286 L130.5111 57.9309 "
       id="path188" />
    <path
       d="M130.5111 57.9309 L145.5088 58.1927 "
       id="path189" />
    <path
       d="M145.2470 73.1904 L130.2493 72.9286 "
       id="path190" />
    <path
       d="M145.5088 58.1927 L145.2470 73.1904 "
       id="path191" />
  </g>
  <g
     style="fill:none;  stroke:#000000; stroke-width:0.1500; stroke-opacity:1;  stroke-linecap:round; stroke-linejoin:round;"
     id="g197">
    <path
       d="M39.7016 152.1763 L54.6650 151.1299 "
       id="path193" />
    <path
       d="M40.7479 167.1397 L39.7016 152.1763 "
       id="path194" />
    <path
       d="M54.6650 151.1299 L55.7114 166.0934 "
       id="path195" />
    <path
       d="M55.7114 166.0934 L40.7479 167.1397 "
       id="path196" />
  </g>
  <g
     style="fill:none;  stroke:#000000; stroke-width:0.1000; stroke-opacity:1;  stroke-linecap:round; stroke-linejoin:round;"
     id="g205">
    <path
       d="M46.5682 72.2536 L47.8182 72.2536 "
       id="path198" />
    <path
       d="M46.5682 74.2536 L46.5682 72.2536 "
       id="path199" />
    <path
       d="M47.8182 72.2536 L47.8182 74.2536 "
       id="path200" />
    <path
       d="M47.8182 74.2536 L46.5682 74.2536 "
       id="path201" />
    <path
       d="M38.9615 63.5956 L40.2115 63.5956 "
       id="path202" />
    <path
       d="M38.9615 65.5956 L38.9615 63.5956 "
       id="path203" />
    <path
       d="M40.2115 63.5956 L40.2115 65.5956 "
       id="path204" />
    <path
       d="M40.2115 65.5956 L38.9615 65.5956 "
       id="path205" />
  </g>
  <g
     style="fill:none;  stroke:#000000; stroke-width:0.1500; stroke-opacity:1;  stroke-linecap:round; stroke-linejoin:round;"
     id="g210">
    <path
       d="M109.9208 38.7181 L124.9208 38.7181 "
       id="path206" />
    <path
       d="M109.9208 53.7181 L109.9208 38.7181 "
       id="path207" />
    <path
       d="M124.9208 38.7181 L124.9208 53.7181 "
       id="path208" />
    <path
       d="M124.9208 53.7181 L109.9208 53.7181 "
       id="path209" />
  </g>
  <g
     style="fill:none;  stroke:#000000; stroke-width:0.1500; stroke-opacity:1;  stroke-linecap:round; stroke-linejoin:round;"
     id="g215">
    <path
       d="M65.0697 133.2337 L80.0331 132.1873 "
       id="path211" />
    <path
       d="M66.1160 148.1971 L65.0697 133.2337 "
       id="path212" />
    <path
       d="M80.0331 132.1873 L81.0795 147.1508 "
       id="path213" />
    <path
       d="M81.0795 147.1508 L66.1160 148.1971 "
       id="path214" />
  </g>
  <g
     style="fill:none;  stroke:#000000; stroke-width:0.1500; stroke-opacity:1;  stroke-linecap:round; stroke-linejoin:round;"
     id="g220">
    <path
       d="M191.2956 67.2658 L192.3419 52.3024 "
       id="path216" />
    <path
       d="M192.3419 52.3024 L207.3054 53.3487 "
       id="path217" />
    <path
       d="M206.2590 68.3122 L191.2956 67.2658 "
       id="path218" />
    <path
       d="M207.3054 53.3487 L206.2590 68.3122 "
       id="path219" />
  </g>
  <g
     style="fill:none;  stroke:#000000; stroke-width:0.1500; stroke-opacity:1;  stroke-linecap:round; stroke-linejoin:round;"
     id="g225">
    <path
       d="M130.5795 53.9823 L130.8413 38.9846 "
       id="path221" />
    <path
       d="M130.8413 38.9846 L145.8390 39.2464 "
       id="path222" />
    <path
       d="M145.5772 54.2441 L130.5795 53.9823 "
       id="path223" />
    <path
       d="M145.8390 39.2464 L145.5772 54.2441 "
       id="path224" />
  </g>
  <g
     style="fill:none;  stroke:#000000; stroke-width:0.1500; stroke-opacity:1;  stroke-linecap:round; stroke-linejoin:round;"
     id="g230">
    <path
       d="M171.0313 59.8852 L171.8164 44.9058 "
       id="path226" />
    <path
       d="M171.8164 44.9058 L186.7958 45.6908 "
       id="path227" />
    <path
       d="M186.0108 60.6703 L171.0313 59.8852 "
       id="path228" />
    <path
       d="M186.7958 45.6908 L186.0108 60.6703 "
       id="path229" />
  </g>
  <g
     style="fill:none;  stroke:#000000; stroke-width:0.1500; stroke-opacity:1;  stroke-linecap:round; stroke-linejoin:round;"
     id="g235">
    <path
       d="M189.9326 86.1840 L190.9789 71.2205 "
       id="path231" />
    <path
       d="M190.9789 71.2205 L205.9424 72.2669 "
       id="path232" />
    <path
       d="M204.8961 87.2304 L189.9326 86.1840 "
       id="path233" />
    <path
       d="M205.9424 72.2669 L204.8961 87.2304 "
       id="path234" />
  </g>
  <g
     style="fill:none;  stroke:#000000; stroke-width:0.1500; stroke-opacity:1;  stroke-linecap:round; stroke-linejoin:round;"
     id="g240">
    <path
       d="M150.1230 73.3621 L150.6465 58.3712 "
       id="path236" />
    <path
       d="M150.6465 58.3712 L165.6373 58.8947 "
       id="path237" />
    <path
       d="M165.1138 73.8856 L150.1230 73.3621 "
       id="path238" />
    <path
       d="M165.6373 58.8947 L165.1138 73.8856 "
       id="path239" />
  </g>
  <g
     style="fill:none;  stroke:#000000; stroke-width:0.1500; stroke-opacity:1;  stroke-linecap:round; stroke-linejoin:round;"
     id="g245">
    <path
       d="M90.0750 52.6571 L105.0750 52.6571 "
       id="path241" />
    <path
       d="M90.0750 67.6571 L90.0750 52.6571 "
       id="path242" />
    <path
       d="M105.0750 52.6571 L105.0750 67.6571 "
       id="path243" />
    <path
       d="M105.0750 67.6571 L90.0750 67.6571 "
       id="path244" />
  </g>
  <g
     style="fill:none;  stroke:#000000; stroke-width:0.1500; stroke-opacity:1;  stroke-linecap:round; stroke-linejoin:round;"
     id="g250">
    <path
       d="M149.4769 92.2786 L150.0004 77.2877 "
       id="path246" />
    <path
       d="M150.0004 77.2877 L164.9913 77.8112 "
       id="path247" />
    <path
       d="M164.4678 92.8021 L149.4769 92.2786 "
       id="path248" />
    <path
       d="M164.9913 77.8112 L164.4678 92.8021 "
       id="path249" />
  </g>
  <g
     style="fill:none;  stroke:#000000; stroke-width:0.1500; stroke-opacity:1;  stroke-linecap:round; stroke-linejoin:round;"
     id="g255">
    <path
       d="M129.9124 91.8403 L130.1742 76.8426 "
       id="path251" />
    <path
       d="M130.1742 76.8426 L145.1719 77.1044 "
       id="path252" />
    <path
       d="M144.9101 92.1021 L129.9124 91.8403 "
       id="path253" />
    <path
       d="M145.1719 77.1044 L144.9101 92.1021 "
       id="path254" />
  </g>
  <g
     style="fill:none;  stroke:#000000; stroke-width:0.1500; stroke-opacity:1;  stroke-linecap:round; stroke-linejoin:round;"
     id="g260">
    <path
       d="M187.3093 124.0167 L188.3556 109.0533 "
       id="path256" />
    <path
       d="M188.3556 109.0533 L203.3191 110.0996 "
       id="path257" />
    <path
       d="M202.2727 125.0631 L187.3093 124.0167 "
       id="path258" />
    <path
       d="M203.3191 110.0996 L202.2727 125.0631 "
       id="path259" />
  </g>
  <g
     style="fill:none;  stroke:#000000; stroke-width:0.1500; stroke-opacity:1;  stroke-linecap:round; stroke-linejoin:round;"
     id="g265">
    <path
       d="M150.7851 54.3359 L151.3086 39.3451 "
       id="path261" />
    <path
       d="M151.3086 39.3451 L166.2995 39.8686 "
       id="path262" />
    <path
       d="M165.7760 54.8594 L150.7851 54.3359 "
       id="path263" />
    <path
       d="M166.2995 39.8686 L165.7760 54.8594 "
       id="path264" />
  </g>
  <g
     style="fill:none;  stroke:#000000; stroke-width:0.1500; stroke-opacity:1;  stroke-linecap:round; stroke-linejoin:round;"
     id="g270">
    <path
       d="M188.6154 105.1334 L189.6617 90.1699 "
       id="path266" />
    <path
       d="M189.6617 90.1699 L204.6252 91.2163 "
       id="path267" />
    <path
       d="M203.5788 106.1797 L188.6154 105.1334 "
       id="path268" />
    <path
       d="M204.6252 91.2163 L203.5788 106.1797 "
       id="path269" />
  </g>
  <g
     style="fill:none;  stroke:#000000; stroke-width:0.1500; stroke-opacity:1;  stroke-linecap:round; stroke-linejoin:round;"
     id="g275">
    <path
       d="M90.0348 90.7425 L105.0348 90.7425 "
       id="path271" />
    <path
       d="M90.0348 105.7425 L90.0348 90.7425 "
       id="path272" />
    <path
       d="M105.0348 90.7425 L105.0348 105.7425 "
       id="path273" />
    <path
       d="M105.0348 105.7425 L90.0348 105.7425 "
       id="path274" />
  </g>
  <g
     style="fill:none;  stroke:#000000; stroke-width:0.1500; stroke-opacity:1;  stroke-linecap:round; stroke-linejoin:round;"
     id="g280">
    <path
       d="M69.1537 113.4074 L84.1172 112.3611 "
       id="path276" />
    <path
       d="M70.2001 128.3709 L69.1537 113.4074 "
       id="path277" />
    <path
       d="M84.1172 112.3611 L85.1635 127.3245 "
       id="path278" />
    <path
       d="M85.1635 127.3245 L70.2001 128.3709 "
       id="path279" />
  </g>
  <g
     style="fill:none;  stroke:#000000; stroke-width:0.1000; stroke-opacity:1;  stroke-linecap:round; stroke-linejoin:round;"
     id="g288">
    <path
       d="M42.2022 77.7434 L44.2022 77.7434 "
       id="path281" />
    <path
       d="M42.2022 78.9934 L42.2022 77.7434 "
       id="path282" />
    <path
       d="M44.2022 77.7434 L44.2022 78.9934 "
       id="path283" />
    <path
       d="M44.2022 78.9934 L42.2022 78.9934 "
       id="path284" />
    <path
       d="M42.1514 75.7368 L44.1514 75.7368 "
       id="path285" />
    <path
       d="M42.1514 76.9868 L42.1514 75.7368 "
       id="path286" />
    <path
       d="M44.1514 75.7368 L44.1514 76.9868 "
       id="path287" />
    <path
       d="M44.1514 76.9868 L42.1514 76.9868 "
       id="path288" />
  </g>
  <g
     style="fill:none;  stroke:#000000; stroke-width:0.1500; stroke-opacity:1;  stroke-linecap:round; stroke-linejoin:round;"
     id="g293">
    <path
       d="M169.0619 97.7069 L169.8470 82.7275 "
       id="path289" />
    <path
       d="M169.8470 82.7275 L184.8264 83.5125 "
       id="path290" />
    <path
       d="M184.0414 98.4920 L169.0619 97.7069 "
       id="path291" />
    <path
       d="M184.8264 83.5125 L184.0414 98.4920 "
       id="path292" />
  </g>
  <g
     style="fill:none;  stroke:#000000; stroke-width:0.1500; stroke-opacity:1;  stroke-linecap:round; stroke-linejoin:round;"
     id="g298">
    <path
       d="M170.0218 78.7338 L170.8069 63.7544 "
       id="path294" />
    <path
       d="M170.8069 63.7544 L185.7863 64.5394 "
       id="path295" />
    <path
       d="M185.0013 79.5189 L170.0218 78.7338 "
       id="path296" />
    <path
       d="M185.7863 64.5394 L185.0013 79.5189 "
       id="path297" />
  </g>
  <g
     style="fill:none;  stroke:#000000; stroke-width:0.1500; stroke-opacity:1;  stroke-linecap:round; stroke-linejoin:round;"
     id="g303">
    <path
       d="M109.9415 57.6946 L124.9415 57.6946 "
       id="path299" />
    <path
       d="M109.9415 72.6946 L109.9415 57.6946 "
       id="path300" />
    <path
       d="M124.9415 57.6946 L124.9415 72.6946 "
       id="path301" />
    <path
       d="M124.9415 72.6946 L109.9415 72.6946 "
       id="path302" />
  </g>
  <g
     style="fill:none;  stroke:#000000; stroke-width:0.1200; stroke-opacity:1;  stroke-linecap:round; stroke-linejoin:round;"
     id="g308">
    <path
       d="M39.0776 81.0370 L60.0776 81.0370 "
       id="path304" />
    <path
       d="M39.0776 82.3370 L40.3776 81.0370 "
       id="path305" />
    <path
       d="M39.0776 132.0370 L39.0776 81.0370 "
       id="path306" />
    <path
       d="M60.0776 81.0370 L60.0776 132.0370 "
       id="path307" />
    <path
       d="M60.0776 132.0370 L39.0776 132.0370 "
       id="path308" />
  </g>
  <g
     style="fill:none;  stroke:#000000; stroke-width:0.1500; stroke-opacity:1;  stroke-linecap:round; stroke-linejoin:round;"
     id="g313">
    <path
       d="M60.9695 152.5748 L75.9329 151.5285 "
       id="path309" />
    <path
       d="M62.0158 167.5383 L60.9695 152.5748 "
       id="path310" />
    <path
       d="M75.9329 151.5285 L76.9793 166.4919 "
       id="path311" />
    <path
       d="M76.9793 166.4919 L62.0158 167.5383 "
       id="path312" />
  </g>
  <g
     style="fill:none;  stroke:#000000; stroke-width:0.1500; stroke-opacity:1;  stroke-linecap:round; stroke-linejoin:round;"
     id="g318">
    <path
       d="M67.8579 94.4833 L82.8214 93.4369 "
       id="path314" />
    <path
       d="M68.9043 109.4467 L67.8579 94.4833 "
       id="path315" />
    <path
       d="M82.8214 93.4369 L83.8677 108.4004 "
       id="path316" />
    <path
       d="M83.8677 108.4004 L68.9043 109.4467 "
       id="path317" />
  </g>
  <g
     style="fill:none;  stroke:#000000; stroke-width:0.1500; stroke-opacity:1;  stroke-linecap:round; stroke-linejoin:round;"
     id="g323">
    <path
       d="M150.4072 135.0018 L151.1922 120.0224 "
       id="path319" />
    <path
       d="M151.1922 120.0224 L166.1716 120.8074 "
       id="path320" />
    <path
       d="M165.3866 135.7869 L150.4072 135.0018 "
       id="path321" />
    <path
       d="M166.1716 120.8074 L165.3866 135.7869 "
       id="path322" />
  </g>
  <g
     style="fill:none;  stroke:#000000; stroke-width:0.1500; stroke-opacity:1;  stroke-linecap:round; stroke-linejoin:round;"
     id="g328">
    <path
       d="M66.4910 75.5549 L81.4545 74.5086 "
       id="path324" />
    <path
       d="M67.5374 90.5184 L66.4910 75.5549 "
       id="path325" />
    <path
       d="M81.4545 74.5086 L82.5008 89.4720 "
       id="path326" />
    <path
       d="M82.5008 89.4720 L67.5374 90.5184 "
       id="path327" />
  </g>
  <g
     style="fill:none;  stroke:#000000; stroke-width:0.1000; stroke-opacity:1;  stroke-linecap:round; stroke-linejoin:round;"
     id="g336">
    <path
       d="M36.9520 63.6210 L38.2020 63.6210 "
       id="path329" />
    <path
       d="M36.9520 65.6210 L36.9520 63.6210 "
       id="path330" />
    <path
       d="M38.2020 63.6210 L38.2020 65.6210 "
       id="path331" />
    <path
       d="M38.2020 65.6210 L36.9520 65.6210 "
       id="path332" />
    <path
       d="M42.1514 73.5270 L44.1514 73.5270 "
       id="path333" />
    <path
       d="M42.1514 74.7770 L42.1514 73.5270 "
       id="path334" />
    <path
       d="M44.1514 73.5270 L44.1514 74.7770 "
       id="path335" />
    <path
       d="M44.1514 74.7770 L42.1514 74.7770 "
       id="path336" />
  </g>
  <g
     style="fill:none;  stroke:#000000; stroke-width:0.1500; stroke-opacity:1;  stroke-linecap:round; stroke-linejoin:round;"
     id="g341">
    <path
       d="M109.9685 76.7165 L124.9685 76.7165 "
       id="path337" />
    <path
       d="M109.9685 91.7165 L109.9685 76.7165 "
       id="path338" />
    <path
       d="M124.9685 76.7165 L124.9685 91.7165 "
       id="path339" />
    <path
       d="M124.9685 91.7165 L109.9685 91.7165 "
       id="path340" />
  </g>
</svg>
